<svg id="Circles" xmlns="http://www.w3.org/2000/svg" width="1263" height="227" viewBox="0 0 1263 227">
  <metadata><?xpacket begin="﻿" id="W5M0MpCehiHzreSzNTczkc9d"?>
<x:xmpmeta xmlns:x="adobe:ns:meta/" x:xmptk="Adobe XMP Core 5.6-c138 79.159824, 2016/09/14-01:09:01        ">
   <rdf:RDF xmlns:rdf="http://www.w3.org/1999/02/22-rdf-syntax-ns#">
      <rdf:Description rdf:about=""/>
   </rdf:RDF>
</x:xmpmeta>
                                                                                                    
                                                                                                    
                                                                                                    
                                                                                                    
                                                                                                    
                                                                                                    
                                                                                                    
                                                                                                    
                                                                                                    
                                                                                                    
                                                                                                    
                                                                                                    
                                                                                                    
                                                                                                    
                                                                                                    
                                                                                                    
                                                                                                    
                                                                                                    
                                                                                                    
                                                                                                    
                           
<?xpacket end="w"?></metadata>
<defs>
    <style>
      .cls-1 {
        fill: #3bc6c5;
      }

      .cls-1, .cls-2, .cls-3 {
        fill-rule: evenodd;
      }

      .cls-2 {
        fill: #ff775c;
      }

      .cls-3 {
        fill: #faad4d;
      }
    </style>
  </defs>
  <path class="cls-1" d="M426,264a4,4,0,1,1-4,4A4,4,0,0,1,426,264Zm45.5,69a7.5,7.5,0,1,1-7.5,7.5A7.5,7.5,0,0,1,471.5,333Zm131-4a9.5,9.5,0,1,1-9.5,9.5A9.5,9.5,0,0,1,602.5,329Zm-30,12a7.5,7.5,0,1,1-7.5,7.5A7.5,7.5,0,0,1,572.5,341Zm14,56a4.5,4.5,0,1,1-4.5,4.5A4.5,4.5,0,0,1,586.5,397ZM693,309a4,4,0,1,1-4,4A4,4,0,0,1,693,309Zm6.5,107A12.5,12.5,0,1,1,687,428.5,12.5,12.5,0,0,1,699.5,416Zm121-130a9.5,9.5,0,1,1-9.5,9.5A9.5,9.5,0,0,1,820.5,286Z" transform="translate(-401 -214)"/>
  <path class="cls-2" d="M406,330a5,5,0,1,1-5,5A5,5,0,0,1,406,330ZM607,214a8,8,0,1,1-8,8A8,8,0,0,1,607,214Zm134.5,47a4.5,4.5,0,1,1-4.5,4.5A4.5,4.5,0,0,1,741.5,261Z" transform="translate(-401 -214)"/>
  <path class="cls-2" d="M765.5,356a9.5,9.5,0,1,1-9.5,9.5A9.5,9.5,0,0,1,765.5,356Zm-208,38A12.5,12.5,0,1,1,545,406.5,12.5,12.5,0,0,1,557.5,394Z" transform="translate(-401 -214)"/>
  <path class="cls-3" d="M410.5,243a9.5,9.5,0,1,1-9.5,9.5A9.5,9.5,0,0,1,410.5,243ZM519,268a5,5,0,1,1-5,5A5,5,0,0,1,519,268Zm146.5,12a9.5,9.5,0,1,1-9.5,9.5A9.5,9.5,0,0,1,665.5,280Zm171,96a5.5,5.5,0,1,1-5.5,5.5A5.5,5.5,0,0,1,836.5,376Z" transform="translate(-401 -214)"/>
  <path class="cls-1" d="M1639,264a4,4,0,1,1-4,4A4,4,0,0,1,1639,264Zm-45.5,69a7.5,7.5,0,1,1-7.5,7.5A7.5,7.5,0,0,1,1593.5,333Zm-131-4a9.5,9.5,0,1,1-9.5,9.5A9.5,9.5,0,0,1,1462.5,329Zm30,12a7.5,7.5,0,1,1-7.5,7.5A7.5,7.5,0,0,1,1492.5,341Zm-14,56a4.5,4.5,0,1,1-4.5,4.5A4.5,4.5,0,0,1,1478.5,397ZM1372,309a4,4,0,1,1-4,4A4,4,0,0,1,1372,309Zm-6.5,107a12.5,12.5,0,1,1-12.5,12.5A12.5,12.5,0,0,1,1365.5,416Zm-121-130a9.5,9.5,0,1,1-9.5,9.5A9.5,9.5,0,0,1,1244.5,286Z" transform="translate(-401 -214)"/>
  <path class="cls-2" d="M1659,330a5,5,0,1,1-5,5A5,5,0,0,1,1659,330ZM1458,214a8,8,0,1,1-8,8A8,8,0,0,1,1458,214Zm-134.5,47a4.5,4.5,0,1,1-4.5,4.5A4.5,4.5,0,0,1,1323.5,261Z" transform="translate(-401 -214)"/>
  <path class="cls-2" d="M1299.5,356a9.5,9.5,0,1,1-9.5,9.5A9.5,9.5,0,0,1,1299.5,356Zm208,38a12.5,12.5,0,1,1-12.5,12.5A12.5,12.5,0,0,1,1507.5,394Z" transform="translate(-401 -214)"/>
  <path class="cls-3" d="M1654.5,243a9.5,9.5,0,1,1-9.5,9.5A9.5,9.5,0,0,1,1654.5,243ZM1546,268a5,5,0,1,1-5,5A5,5,0,0,1,1546,268Zm-146.5,12a9.5,9.5,0,1,1-9.5,9.5A9.5,9.5,0,0,1,1399.5,280Zm-171,96a5.5,5.5,0,1,1-5.5,5.5A5.5,5.5,0,0,1,1228.5,376Z" transform="translate(-401 -214)"/>
</svg>
