<svg
 xmlns="http://www.w3.org/2000/svg"
 xmlns:xlink="http://www.w3.org/1999/xlink"
 width="272px" height="304px">
<path fill-rule="evenodd"  stroke-width="16px" stroke="rgb(255, 202, 86)" fill-opacity="0" fill="rgb(255, 202, 86)"
 d="M61.000,18.000 L211.000,18.000 C234.748,18.000 254.000,37.252 254.000,61.000 L254.000,243.000 C254.000,266.748 234.748,286.000 211.000,286.000 L61.000,286.000 C37.252,286.000 18.000,266.748 18.000,243.000 L18.000,61.000 C18.000,37.252 37.252,18.000 61.000,18.000 Z"/>
<path fill-rule="evenodd"  fill="rgb(255, 202, 86)"
 d="M104.650,129.094 L104.662,129.094 C112.201,129.094 118.312,135.205 118.312,142.744 L118.312,243.350 C118.312,250.889 112.201,257.000 104.662,257.000 L104.650,257.000 C97.111,257.000 91.000,250.889 91.000,243.350 L91.000,142.744 C91.000,135.205 97.111,129.094 104.650,129.094 Z"/>
<path fill-rule="evenodd"  fill="rgb(255, 202, 86)"
 d="M104.703,129.094 L168.297,129.094 C175.865,129.094 182.000,135.229 182.000,142.797 C182.000,150.365 175.865,156.500 168.297,156.500 L104.703,156.500 C97.135,156.500 91.000,150.365 91.000,142.797 C91.000,135.229 97.135,129.094 104.703,129.094 Z"/>
<path fill-rule="evenodd"  fill="rgb(255, 202, 86)"
 d="M104.703,56.000 L168.297,56.000 C175.865,56.000 182.000,62.135 182.000,69.703 C182.000,77.271 175.865,83.406 168.297,83.406 L104.703,83.406 C97.135,83.406 91.000,77.271 91.000,69.703 C91.000,62.135 97.135,56.000 104.703,56.000 Z"/>
</svg>
