<svg xmlns="http://www.w3.org/2000/svg" width="26.594" height="26.594" viewBox="0 0 26.594 26.594">
  <metadata><?xpacket begin="﻿" id="W5M0MpCehiHzreSzNTczkc9d"?>
<x:xmpmeta xmlns:x="adobe:ns:meta/" x:xmptk="Adobe XMP Core 5.6-c138 79.159824, 2016/09/14-01:09:01        ">
   <rdf:RDF xmlns:rdf="http://www.w3.org/1999/02/22-rdf-syntax-ns#">
      <rdf:Description rdf:about=""/>
   </rdf:RDF>
</x:xmpmeta>
                                                                                                    
                                                                                                    
                                                                                                    
                                                                                                    
                                                                                                    
                                                                                                    
                                                                                                    
                                                                                                    
                                                                                                    
                                                                                                    
                                                                                                    
                                                                                                    
                                                                                                    
                                                                                                    
                                                                                                    
                                                                                                    
                                                                                                    
                                                                                                    
                                                                                                    
                                                                                                    
                           
<?xpacket end="w"?></metadata>
<defs>
    <style>
      .cls-1 {
        fill: #5c5d5d;
        fill-rule: evenodd;
      }
    </style>
  </defs>
  <path id="Settings" class="cls-1" d="M168.143,264.589a6.156,6.156,0,1,1,6.081-6.155A6.124,6.124,0,0,1,168.143,264.589Zm0-11.222a5.067,5.067,0,1,0,5,5.067A5.042,5.042,0,0,0,168.143,253.367ZM165.189,271.3a0.553,0.553,0,0,1-.121-0.013,13.256,13.256,0,0,1-5.335-2.6,0.552,0.552,0,0,1-.205-0.373,0.565,0.565,0,0,1,.117-0.41l0.758-.963a11.79,11.79,0,0,1-2.531-3.207l-1.1.539a0.546,0.546,0,0,1-.735-0.257,13.463,13.463,0,0,1-1.326-5.838,0.561,0.561,0,0,1,.16-0.394,0.545,0.545,0,0,1,.389-0.164l1.21,0a11.687,11.687,0,0,1,.9-4.006l-1.1-.534a0.55,0.55,0,0,1-.28-0.318,0.564,0.564,0,0,1,.022-0.425,13.559,13.559,0,0,1,3.677-4.687,0.544,0.544,0,0,1,.772.086l0.763,0.959a11.528,11.528,0,0,1,3.65-1.79l-0.274-1.2a0.562,0.562,0,0,1,.069-0.42,0.547,0.547,0,0,1,.344-0.247,13.307,13.307,0,0,1,5.91-.019,0.558,0.558,0,0,1,.417.665l-0.265,1.2a11.559,11.559,0,0,1,3.66,1.771l0.756-.966a0.546,0.546,0,0,1,.773-0.09,13.56,13.56,0,0,1,3.705,4.663,0.567,0.567,0,0,1,.025.426,0.553,0.553,0,0,1-.279.319l-1.1.542a11.7,11.7,0,0,1,.927,4.016l1.2-.015h0.008a0.548,0.548,0,0,1,.386.16,0.562,0.562,0,0,1,.164.4A13.537,13.537,0,0,1,180,264a0.548,0.548,0,0,1-.736.26l-1.1-.538a11.846,11.846,0,0,1-2.525,3.213l0.76,0.962a0.562,0.562,0,0,1-.087.782,13.262,13.262,0,0,1-5.329,2.6,0.543,0.543,0,0,1-.658-0.418l-0.272-1.2a11.121,11.121,0,0,1-4.055,0l-0.267,1.2a0.557,0.557,0,0,1-.244.348A0.55,0.55,0,0,1,165.189,271.3Zm-4.334-3.142a12.175,12.175,0,0,0,3.921,1.907l0.262-1.177a0.562,0.562,0,0,1,.244-0.349,0.547,0.547,0,0,1,.414-0.072,10.132,10.132,0,0,0,4.647,0,0.524,0.524,0,0,1,.414.071,0.555,0.555,0,0,1,.244.347l0.266,1.177a12.183,12.183,0,0,0,3.917-1.914l-0.744-.942a0.562,0.562,0,0,1,.087-0.782,10.666,10.666,0,0,0,2.891-3.681,0.548,0.548,0,0,1,.735-0.26l1.078,0.527a12.311,12.311,0,0,0,.966-4.332l-1.179.015H179.01a0.543,0.543,0,0,1-.385-0.16,0.555,0.555,0,0,1-.164-0.395,10.609,10.609,0,0,0-1.061-4.6,0.56,0.56,0,0,1,.253-0.744l1.076-.531a12.466,12.466,0,0,0-2.724-3.427l-0.74.945a0.546,0.546,0,0,1-.773.09,10.282,10.282,0,0,0-4.189-2.027,0.558,0.558,0,0,1-.417-0.666l0.26-1.177a12.3,12.3,0,0,0-4.346.015l0.269,1.177a0.569,0.569,0,0,1-.069.419,0.552,0.552,0,0,1-.344.248,10.392,10.392,0,0,0-4.179,2.05,0.547,0.547,0,0,1-.773-0.086l-0.746-.939a12.491,12.491,0,0,0-2.7,3.445l1.079,0.524a0.56,0.56,0,0,1,.258.743,10.575,10.575,0,0,0-1.034,4.564,0.573,0.573,0,0,1-.548.579l-1.185,0a12.32,12.32,0,0,0,.974,4.29l1.076-.528a0.541,0.541,0,0,1,.421-0.025,0.548,0.548,0,0,1,.314.284,10.67,10.67,0,0,0,2.9,3.674,0.552,0.552,0,0,1,.205.373,0.566,0.566,0,0,1-.117.41Z" transform="translate(-154.719 -244.719)"/>
</svg>
