<svg xmlns="http://www.w3.org/2000/svg" width="20.906" height="26.125" viewBox="0 0 20.906 26.125">
  <metadata><?xpacket begin="﻿" id="W5M0MpCehiHzreSzNTczkc9d"?>
<x:xmpmeta xmlns:x="adobe:ns:meta/" x:xmptk="Adobe XMP Core 5.6-c138 79.159824, 2016/09/14-01:09:01        ">
   <rdf:RDF xmlns:rdf="http://www.w3.org/1999/02/22-rdf-syntax-ns#">
      <rdf:Description rdf:about=""/>
   </rdf:RDF>
</x:xmpmeta>
                                                                                                    
                                                                                                    
                                                                                                    
                                                                                                    
                                                                                                    
                                                                                                    
                                                                                                    
                                                                                                    
                                                                                                    
                                                                                                    
                                                                                                    
                                                                                                    
                                                                                                    
                                                                                                    
                                                                                                    
                                                                                                    
                                                                                                    
                                                                                                    
                                                                                                    
                                                                                                    
                           
<?xpacket end="w"?></metadata>
<defs>
    <style>
      .cls-1 {
        fill: #5c5d5d;
        fill-rule: evenodd;
      }
    </style>
  </defs>
  <path id="List" class="cls-1" d="M70.707,267.544a2.971,2.971,0,0,1-2.048-2.818V251.979h2.349a3.248,3.248,0,0,0,3.365-3.016v-3.014h7.819a2.965,2.965,0,0,1,2.285,1.074,4.624,4.624,0,0,0,1.357.079,4.076,4.076,0,0,0-3.643-2.251H73.684a0.55,0.55,0,0,0-.389.161l-5.575,5.563a0.548,0.548,0,0,0-.161.388v13.763a4.071,4.071,0,0,0,3.229,3.975A9.159,9.159,0,0,0,70.707,267.544Zm2.566-20.958-4.3,4.295h2.039a2.169,2.169,0,0,0,2.265-1.918v-2.377Zm11.119,24.38H73.831A4.072,4.072,0,0,1,69.76,266.9V253.141a0.548,0.548,0,0,1,.161-0.388L75.5,247.19a0.55,0.55,0,0,1,.389-0.161h8.508a4.07,4.07,0,0,1,4.07,4.062V266.9A4.071,4.071,0,0,1,84.393,270.966Zm-8.919-22.2-4.3,4.295h2.039a2.169,2.169,0,0,0,2.265-1.918v-2.377Zm11.889,2.327a2.97,2.97,0,0,0-2.97-2.964H76.574v3.014a3.248,3.248,0,0,1-3.365,3.016H70.86V266.9a2.971,2.971,0,0,0,2.971,2.965H84.393a2.971,2.971,0,0,0,2.97-2.965V251.091Zm-4.014,13.4h-8.8a0.55,0.55,0,1,1,0-1.1h8.8A0.55,0.55,0,1,1,83.349,264.488Zm0-3.3h-8.8a0.549,0.549,0,1,1,0-1.1h8.8A0.549,0.549,0,1,1,83.349,261.193Zm0-3.294h-8.8a0.549,0.549,0,1,1,0-1.1h8.8A0.549,0.549,0,1,1,83.349,257.9Z" transform="translate(-67.563 -244.844)"/>
</svg>
