<svg xmlns="http://www.w3.org/2000/svg" width="22.094" height="26.375" viewBox="0 0 22.094 26.375">
  <metadata><?xpacket begin="﻿" id="W5M0MpCehiHzreSzNTczkc9d"?>
<x:xmpmeta xmlns:x="adobe:ns:meta/" x:xmptk="Adobe XMP Core 5.6-c138 79.159824, 2016/09/14-01:09:01        ">
   <rdf:RDF xmlns:rdf="http://www.w3.org/1999/02/22-rdf-syntax-ns#">
      <rdf:Description rdf:about=""/>
   </rdf:RDF>
</x:xmpmeta>
                                                                                                    
                                                                                                    
                                                                                                    
                                                                                                    
                                                                                                    
                                                                                                    
                                                                                                    
                                                                                                    
                                                                                                    
                                                                                                    
                                                                                                    
                                                                                                    
                                                                                                    
                                                                                                    
                                                                                                    
                                                                                                    
                                                                                                    
                                                                                                    
                                                                                                    
                                                                                                    
                           
<?xpacket end="w"?></metadata>
<defs>
    <style>
      .cls-1 {
        fill: #636464;
        fill-rule: evenodd;
      }
    </style>
  </defs>
  <path id="Trash" class="cls-1" d="M266.887,248.9H262.22v-1.146a3.467,3.467,0,0,0-3.488-3.439h-1.163a3.467,3.467,0,0,0-3.487,3.439V248.9h-4.668a2.292,2.292,0,1,0,0,4.584h0.018v13.946a3.274,3.274,0,0,0,3.294,3.248h10.85a3.274,3.274,0,0,0,3.294-3.248V253.485h0.017A2.292,2.292,0,1,0,266.887,248.9Zm-11.643-1.146a2.311,2.311,0,0,1,2.325-2.293h1.163a2.311,2.311,0,0,1,2.325,2.293V248.9h-5.813v-1.146Zm10.463,19.676a2.118,2.118,0,0,1-2.131,2.1h-10.85a2.118,2.118,0,0,1-2.132-2.1V253.485h15.113v13.946Zm1.18-15.092H249.414a1.146,1.146,0,0,1,0-2.292h17.473A1.146,1.146,0,0,1,266.887,252.339Zm-12.224,14.328a0.577,0.577,0,0,0,.581-0.573v-9.17a0.581,0.581,0,0,0-1.162,0v9.17A0.577,0.577,0,0,0,254.663,266.667Zm3.488,0a0.577,0.577,0,0,0,.581-0.573v-9.17a0.582,0.582,0,0,0-1.163,0v9.17A0.577,0.577,0,0,0,258.151,266.667Zm3.487,0a0.577,0.577,0,0,0,.582-0.573v-9.17a0.582,0.582,0,0,0-1.163,0v9.17A0.577,0.577,0,0,0,261.638,266.667Z" transform="translate(-247.094 -244.313)"/>
</svg>
